PathFileType	4	(X/Y/Z)	pose_F01_0-96.trc
DataRate	CameraRate	NumFrames	NumMarkers	Units	OrigDataRate	OrigDataStartFrame	OrigNumFrames
30	30	4	21	m	30	0	96
Frame#	Time	CHip			RHip			RKnee			RAnkle			RBigToe			RSmallToe			RHeel			LHip			LKnee			LAnkle			LBigToe			LSmallToe			LHeel			Neck			Nose			RShoulder			RElbow			RWrist			LShoulder			LElbow			LWrist			
		X1	Y1	Z1	X2	Y2	Z2	X3	Y3	Z3	X4	Y4	Z4	X5	Y5	Z5	X6	Y6	Z6	X7	Y7	Z7	X8	Y8	Z8	X9	Y9	Z9	X10	Y10	Z10	X11	Y11	Z11	X12	Y12	Z12	X13	Y13	Z13	X14	Y14	Z14	X15	Y15	Z15	X16	Y16	Z16	X17	Y17	Z17	X18	Y18	Z18	X19	Y19	Z19	X20	Y20	Z20	X21	Y21	Z21	
0	0.0	-0.19231868789974557	1.8613710926956206	-0.5851095215061398	-0.18898752817947043	1.847226278502057	-0.5293723067152746	-0.18126384908437787	1.698130257050892	-0.5139691935321733	-0.1910977762809261	1.6188011232743154	-0.5231502686085416	-0.218770958390906	1.5514510809169104	-0.4866193190319301	-0.1877253538757358	1.5695057535311405	-0.4571443078598338	-0.1777608552299919	1.597726248945157	-0.5076508140801003	-0.1763626041441977	1.851731248088583	-0.6466423161678531	-0.15209558099464368	1.7071649221626337	-0.6690672871054313	-0.15484937315022004	1.5759593893321324	-0.6584599343992263	-0.19725165106879747	1.5543647836765104	-0.6255223886444494	-0.18837175772412015	1.5497381900187366	-0.6575948577626826	-0.1273436325299302	1.5756619543433292	-0.6708537616588964	-0.17956372014330996	2.045738343957468	-0.6002216462696642	-0.18023548875272727	2.1088185514400957	-0.5846206602621826	-0.1808480736070574	2.040955217434201	-0.5236404281546301	-0.19331860045441998	1.9489212754279162	-0.5201873123270213	-0.18741888314970032	1.8825617467497762	-0.43078774968149347	-0.14281177326717986	2.0422358097156956	-0.7110393960298551	-0.1358891623717778	1.955941071277291	-0.7318959649215183	-0.1433968572082811	1.8826779627339143	-0.7440829046959925
1	0.03333333333333333	-0.19014392533962313	1.8641132809511303	-0.5877567325246393	-0.18889484214880728	1.8513032387250101	-0.5301833489863336	-0.18113794843185138	1.7034188317417913	-0.5149450081236787	-0.1898843484110059	1.6172615073034622	-0.5201674674643978	-0.2176834825352277	1.5533517481448211	-0.48375550625958397	-0.18978406904965303	1.570133455765994	-0.4549199930643456	-0.17763854530456674	1.5974576824096347	-0.5076507028059699	-0.17414509049789154	1.8559209203276494	-0.649537820901835	-0.15216797397984755	1.7114178536859699	-0.6694247814793916	-0.15476169883565918	1.5787452059417386	-0.6588256630188557	-0.19511885170835228	1.5546370748585117	-0.6276648809030178	-0.1859072205131341	1.5513241697341502	-0.6603883817977211	-0.1296880757754901	1.577255889873678	-0.6684712236824102	-0.1775913238273408	2.04581444841163	-0.6023573879393265	-0.18108195698410828	2.1089149150557143	-0.5875746545950746	-0.1808360204247606	2.040926144846554	-0.5236521589165972	-0.19219210893848673	1.9499317319881067	-0.5170748826187299	-0.1886239438957682	1.8829178585025101	-0.4340664090709872	-0.14281559415479275	2.0434787884390806	-0.7115397939906029	-0.13592428849489716	1.957308710324421	-0.7322059066717491	-0.14317670469838797	1.883775709274837	-0.7442879639623189
2	0.06666666666666667	-0.18796916277950068	1.86685546920664	-0.5904039435431389	-0.18880215611814413	1.8553801989479632	-0.5309943912573926	-0.1810120477793249	1.7087074064326906	-0.5159208227151841	-0.1886709205410857	1.615721891332609	-0.517184666320254	-0.21659600667954942	1.5552524153727318	-0.4808916934872378	-0.19184278422357026	1.5707611580008476	-0.4526956782688574	-0.17751623537914157	1.5971891158741125	-0.5076505915318396	-0.17192757685158538	1.8601105925667158	-0.6524333256358169	-0.15224036696505142	1.715670785209306	-0.6697822758533518	-0.15467402452109832	1.5815310225513448	-0.6591913916384851	-0.19298605234790708	1.5549093660405129	-0.6298073731615861	-0.18344268330214805	1.5529101494495638	-0.6631819058327596	-0.13203251902105	1.5788498254040266	-0.6660886857059239	-0.17561892751137165	2.0458905528657922	-0.6044931296089887	-0.1819284252154893	2.109011278671333	-0.5905286489279666	-0.1808239672424638	2.040897072258907	-0.5236638896785644	-0.19106561742255349	1.9509421885482972	-0.5139624529104387	-0.18982900464183608	1.8832739702552441	-0.43734506846048093	-0.14281941504240564	2.0447217671624656	-0.7120401919513506	-0.1359594146180165	1.958676349371551	-0.7325158484219799	-0.14295655218849485	1.8848734558157598	-0.7444930232286453
3	0.1	-0.18579440021937824	1.8695976574621496	-0.5930511545616384	-0.18870947008748098	1.8594571591709164	-0.5318054335284516	-0.1808861471267984	1.7139959811235899	-0.5168966373066896	-0.1874574926711655	1.6141822753617558	-0.5142018651761101	-0.21550853082387114	1.5571530826006426	-0.47802788071489166	-0.1939014993974875	1.5713888602357011	-0.45047136347336925	-0.1773939254537164	1.5969205493385903	-0.5076504802577092	-0.16971006320527923	1.8643002648057823	-0.6553288303697988	-0.15231275995025528	1.7199237167326422	-0.6701397702273121	-0.15458635020653747	1.584316839160951	-0.6595571202581144	-0.1908532529874619	1.5551816572225141	-0.6319498654201544	-0.180978146091162	1.5544961291649775	-0.6659754298677981	-0.13437696226660992	1.5804437609343753	-0.6637061477294377	-0.1736465311954025	2.0459666573199544	-0.606628871278651	-0.1827748934468703	2.1091076422869515	-0.5934826432608586	-0.180811914060167	2.04086799967126	-0.5236756204405315	-0.18993912590662024	1.9519526451084876	-0.5108500232021473	-0.19103406538790396	1.883630082007978	-0.44062372784997467	-0.14282323593001853	2.0459647458858505	-0.7125405899120983	-0.13599454074113584	1.960043988418681	-0.7328257901722107	-0.14273639967860172	1.8859712023566826	-0.7446980824949717
